<svg xmlns="http://www.w3.org/2000/svg" viewBox="0 0 128 128">
  <!-- Shield background -->
  <path d="M64 8L16 28v32c0 35.3 20.5 56.2 48 64 27.5-7.8 48-28.7 48-64V28L64 8z" fill="#1a73e8"/>
  <!-- Shield highlight -->
  <path d="M64 12L20 30.5v29.5c0 33.1 19.2 52.7 44 60 24.8-7.3 44-26.9 44-60V30.5L64 12z" fill="#4285f4"/>
  <!-- Eye icon (crossed out) -->
  <g transform="translate(64,68)" fill="none" stroke="white" stroke-width="4" stroke-linecap="round">
    <!-- Eye shape -->
    <path d="M-24 0c0 0 10-16 24-16s24 16 24 16c0 0-10 16-24 16S-24 0-24 0z"/>
    <!-- Pupil -->
    <circle cx="0" cy="0" r="8" fill="white"/>
    <!-- Strike through line -->
    <line x1="-28" y1="20" x2="28" y2="-20" stroke="white" stroke-width="5"/>
    <line x1="-28" y1="20" x2="28" y2="-20" stroke="#4285f4" stroke-width="3"/>
  </g>
</svg>
